<svg id="Layer_1" data-name="Layer 1" xmlns="http://www.w3.org/2000/svg" xmlns:xlink="http://www.w3.org/1999/xlink" viewBox="0 0 364.8 530.5"><defs><style>.cls-1,.cls-21,.cls-7{fill:#fff;}.cls-2{fill:#f49523;}.cls-3{fill:#eb5c2c;}.cls-4{fill:#031410;}.cls-5{fill:#222a3c;opacity:0.2;}.cls-6,.cls-7{opacity:0.3;}.cls-6{fill:url(#linear-gradient);}.cls-8{fill:#f3bf69;}.cls-9{fill:#561a12;}.cls-10{fill:#bf6839;}.cls-11{fill:#973f34;}.cls-12{fill:#cc703f;}.cls-13{fill:#89471f;}.cls-14{fill:#bd673d;}.cls-15{fill:#fcc665;}.cls-16{fill:#a2572e;}.cls-17{fill:#1d1e1b;}.cls-18{fill:#f8aa1e;}.cls-19{fill:#512b20;}.cls-20{fill:#762b21;}.cls-21{font-size:12px;font-family:GoboldExtra2, Gobold Extra2;}</style><linearGradient id="linear-gradient" x1="257.72" y1="118.01" x2="341.69" y2="272.53" gradientTransform="matrix(0.82, -0.13, 0.15, 0.84, -16.88, 61.63)" gradientUnits="userSpaceOnUse"><stop offset="0" stop-color="#fff"/><stop offset="1" stop-color="#fff" stop-opacity="0"/></linearGradient></defs><path class="cls-1" d="M150,497.22h18.81v27.84q0,8.85,8.24,8.84t8.18-8.84V420H204V525.06q0,27.45-27,27.45t-27-27.45Z" transform="translate(-114.36 -64.72)"/><path class="cls-1" d="M237.63,523.8l-3.39,26.58H215.3L234.7,420h25.79l19.34,130.39h-19l-3.39-26.58Zm17.54-17.94-7.64-60.62-7.64,60.62Z" transform="translate(-114.36 -64.72)"/><path class="cls-1" d="M326.29,518.75l-13.16,31.63H296.64L283.22,420h18.94l8.64,97.16,15.82-34.95,15.09,35.62L350.34,420h19L356,550.38H338.85Z" transform="translate(-114.36 -64.72)"/><path class="cls-1" d="M393.54,523.8l-3.39,26.58H371.21L390.62,420h25.79l19.34,130.39h-19l-3.39-26.58Zm17.55-17.94-7.64-60.62-7.65,60.62Z" transform="translate(-114.36 -64.72)"/><path class="cls-1" d="M177.48,565.15v4.21h-4v25.39h-4.27V569.36h-4v-4.21Z" transform="translate(-114.36 -64.72)"/><path class="cls-1" d="M216.91,586.13l4.42,8.62h-4.68l-3.8-7.85h-.59v7.85H208v-29.6h6.22q5.68,0,5.68,6.23v9.29Q219.89,584.6,216.91,586.13Zm-4.65-16.79v13.49h1a4.14,4.14,0,0,0,1.22-.12,1.82,1.82,0,0,0,1.16-1.89v-9.45c0-1.35-.61-2-1.85-2Z" transform="translate(-114.36 -64.72)"/><path class="cls-1" d="M255.25,588.71l-.77,6h-4.3l4.41-29.6h5.85l4.39,29.6h-4.31l-.77-6Zm4-4.07-1.73-13.76-1.74,13.76Z" transform="translate(-114.36 -64.72)"/><path class="cls-1" d="M295.19,565.15h6.58q5.69,0,5.69,6.23v17.15q0,6.19-6,6.22h-6.31Zm4.27,4.21v21.18h1.87q1.86,0,1.86-2V571.38c0-1.35-.62-2-1.86-2Z" transform="translate(-114.36 -64.72)"/><path class="cls-1" d="M338.88,565.15H350v4.21h-6.8v13.32H349v4.22h-5.85v3.64H350v4.21H338.88Z" transform="translate(-114.36 -64.72)"/><path class="cls-1" d="M389.83,586.13l4.42,8.62h-4.68l-3.8-7.85h-.59v7.85h-4.26v-29.6h6.21q5.69,0,5.69,6.23v9.29Q392.82,584.6,389.83,586.13Zm-4.65-16.79v13.49h1a4.14,4.14,0,0,0,1.22-.12,1.84,1.84,0,0,0,1.16-1.89v-9.45c0-1.35-.62-2-1.86-2Z" transform="translate(-114.36 -64.72)"/><path class="cls-1" d="M424.16,570.9q0-6.21,6.13-6.22t6.14,6.22v7.24h-4.27V570.9q0-2-1.86-2h0c-1.23,0-1.84.67-1.84,2v5c0,2.32,1.33,4.29,4,5.89a8.56,8.56,0,0,1,4,7.2q0,6.22-6.13,6.23T424.16,589v-2.08h4.27V589c0,1.34.62,2,1.87,2s1.86-.67,1.86-2-1.34-3.1-4-5a9.26,9.26,0,0,1-4-8Z" transform="translate(-114.36 -64.72)"/><path class="cls-2" d="M296.77,64.72A182.41,182.41,0,0,0,202,403H391.51a182.3,182.3,0,0,0,87.66-155.87C479.17,146.39,397.5,64.72,296.77,64.72Z" transform="translate(-114.36 -64.72)"/><path class="cls-3" d="M467.94,184c-29,14.15-63.73,11.47-95.51-4.42-14.86-6.76-17.56-12.16-33.78-10.81C313,170.11,291.36,187.67,264.34,185c-28.37-2.7-50-14.86-79.71-8.11-18.92,5.41-20.27,5.41-40.54,2.71-4.85-.7-10.32-1.21-16.13-1.56A182.42,182.42,0,0,0,202,403H391.51a182.58,182.58,0,0,0,76.43-219Z" transform="translate(-114.36 -64.72)"/><path class="cls-4" d="M479.11,244.66c-29.71,7.18-63.35,25.76-86.41,36.24-25.67,12.16-47.3,13.51-73,27-18.92,10.8-37.83,8.1-59.45,12.16-44.59,8.1-60.8-27-100-33.78-14.87-2.7-25.68-2.7-40.54-8.11-.93-.23-1.9-.51-2.85-.78A182.52,182.52,0,0,0,202.09,403H391.51a182.3,182.3,0,0,0,87.66-155.87C479.17,246.3,479.11,245.49,479.11,244.66Z" transform="translate(-114.36 -64.72)"/><path class="cls-3" d="M172.81,113.37q5.46-5.07,11.35-9.68l9.92.22h17.23c1.35,0,43.57-.68,43.57-.68s8.11-1,9.46-1c1,0,11.67.37,17.25.56,2,.07,3.36.12,3.36.11a92.3,92.3,0,0,0-10.81,1.35c-5.07,1-11.15,2.37-12.84,2.71s-4.39,0-7.43.33a83.31,83.31,0,0,0-11.48,2c-3.72,1-9.13.68-12.16,1.35s-6.43,1-12.84,1.35-18.91,1.36-22.63,1.36H172.81Z" transform="translate(-114.36 -64.72)"/><path class="cls-3" d="M403.17,389c-10-.26-32.61-3-53.24-3s-44.58,2-44.58,2,20.63,3,30.28,3h20.63c4.65,0,11.31,1.77,18,2s22.29-.25,22.29-.25l10.87-.66c1.61-1.23,3.21-2.48,4.78-3.76A62.46,62.46,0,0,1,403.17,389Z" transform="translate(-114.36 -64.72)"/><path class="cls-3" d="M414.2,155.09c-1.71.16-7.9.89-13.05,1.38a90.63,90.63,0,0,1-10.89.25l3.33.45c5.53.76,16.11,2.21,17.11,2.31,1.34.14,9.51,0,9.51,0l38.24,3.29c-1.49-2.84-3-5.66-4.67-8.41a55.44,55.44,0,0,0-8.29.23c-3.1.36-8.43-.52-12.24.11a83.14,83.14,0,0,1-11.63.85C418.56,155.53,415.91,154.92,414.2,155.09Z" transform="translate(-114.36 -64.72)"/><path class="cls-3" d="M239.94,132.7s15.7,3,23.05,3H278.7c3.54,0,8.61,1.77,13.68,2s17-.25,17-.25,23-1.77,30.91-2.78,12.67-.51,19.25-1,7.6-.25,14.44-.25,9.12,1,15.2,1,7.35.25,13.93.25,8.36-.76,10.39-.76a29.3,29.3,0,0,0,6.59-.5c2-.52-3.8-1.78-3.8-1.78h-8.11a27.22,27.22,0,0,1-4-.26c-2-.25-6.08-.25-6.08-.25s-27.11-2-27.87-2H340c-3,0-18,4.82-25.58,4.57s-24.83-3-40.54-3S239.94,132.7,239.94,132.7Z" transform="translate(-114.36 -64.72)"/><path class="cls-2" d="M477.69,224c-5.82-.49-14.52-1.22-14.88-1.21-.55,0-19.41.7-21.59.77s-12.68,6.07-18.14,6-17.91-2.9-29.15-2.5a162,162,0,0,0-24.23,3.22s11.38,3.14,16.63,2.95l11.25-.4c2.55-.09,6.25,1.85,9.89,2a120.75,120.75,0,0,0,12.14-.73s16.43-2.65,22-4,9.05-.92,13.75-1.68,5.42-.49,10.32-.66,6.58.95,10.93.79l1.56,0C478,227,477.87,225.48,477.69,224Z" transform="translate(-114.36 -64.72)"/><path class="cls-2" d="M159.37,221.37s15.71,3,23.06,3h15.71c3.54,0,8.61,1.77,13.68,2s17-.25,17-.25,23.05-1.77,30.91-2.78,12.66-.51,19.25-1,7.6-.25,14.44-.25,9.12,1,15.2,1,7.35.26,13.93.26,8.36-.76,10.39-.76a28.73,28.73,0,0,0,6.59-.51c2-.51-3.81-1.78-3.81-1.78h-8.1a28.29,28.29,0,0,1-4-.25c-2-.25-6.08-.25-6.08-.25s-27.11-2-27.87-2H259.44c-3,0-18,4.82-25.58,4.56s-24.83-3-40.54-3S159.37,221.37,159.37,221.37Z" transform="translate(-114.36 -64.72)"/><path class="cls-2" d="M311.28,280.9c4.21,0,5.61,1,9.35,1s4.53.26,8.58.26,5.15-.76,6.4-.76a11.1,11.1,0,0,0,4.05-.51c1.25-.5-2.34-1.77-2.34-1.77h-5a10.44,10.44,0,0,1-2.49-.26,26.55,26.55,0,0,0-3.75-.25s-16.68-2-17.15-2H290.39c-1.88,0-11.08,4.81-15.75,4.55s-15.29-3-25-3a139.31,139.31,0,0,0-20.89,2s9.67,3,14.19,3h9.67c2.18,0,5.3,1.77,8.42,2s10.44-.26,10.44-.26,14.19-1.77,19-2.78,7.8-.51,11.85-1S307.07,280.9,311.28,280.9Z" transform="translate(-114.36 -64.72)"/><path class="cls-3" d="M333.36,353.19c8.65-.51,10-.26,19-.26s12,1,20,1,9.64.25,18.29.25,11-.76,13.65-.76a49.31,49.31,0,0,0,8.65-.51c2.66-.51-5-1.77-5-1.77H397.24a48.63,48.63,0,0,1-5.32-.25c-2.67-.26-8-.26-8-.26s-35.6-2-36.6-2H307.74c-4,0-23.62,4.81-33.61,4.56s-32.61-3.05-53.23-3.05-44.58,2-44.58,2,20.63,3,30.27,3h20.63c4.66,0,11.31,1.78,18,2s22.29-.25,22.29-.25,30.27-1.78,40.59-2.79S324.71,353.69,333.36,353.19Z" transform="translate(-114.36 -64.72)"/><path class="cls-3" d="M461.59,306.16a77.24,77.24,0,0,0-12.75,2c-3,.83-8.41.77-12.08,2a81,81,0,0,1-11.36,2.61c-3,.5-5.73.3-7.4.72s-7.68,2.08-12.69,3.35a91.88,91.88,0,0,1-10.72,1.9l3.35-.06c5.58-.09,16.27-.26,17.26-.31,1.35-.08,9.39-1.5,9.39-1.5l41.85-2.8q1.71-4.35,3.22-8.81C466.66,305.59,463.77,305.93,461.59,306.16Z" transform="translate(-114.36 -64.72)"/><path class="cls-3" d="M220.2,394.66c3.06-.17,5.74.32,7.44.07s7.85-1.26,13-2a91.88,91.88,0,0,1,10.86-.75l-3.34-.3c-5.56-.5-16.2-1.46-17.19-1.51-1.36-.08-9.5.49-9.5.49s-28-1.09-39.1-1.54q5.19,4.19,10.7,8c1.22-.09,2.32-.23,3.37-.4,3.07-.51,8.44.13,12.21-.67A82.5,82.5,0,0,1,220.2,394.66Z" transform="translate(-114.36 -64.72)"/><path class="cls-5" d="M445.28,141.3c-55.48,80-169.45,221.23-285.72,225.94A183.53,183.53,0,0,0,202.14,403H391.51a182.33,182.33,0,0,0,53.77-261.7Z" transform="translate(-114.36 -64.72)"/><path class="cls-5" d="M479,241.38c-57.79,72.61-162.38,170-296.13,148.18A182.79,182.79,0,0,0,202.16,403H391.51a182.3,182.3,0,0,0,87.66-155.87C479.17,245.2,479.08,243.29,479,241.38Z" transform="translate(-114.36 -64.72)"/><path class="cls-6" d="M374.68,114.7c27,46-3.76,114.23-68.76,152.42S166.32,299,139.3,253s3.76-114.23,68.76-152.42S347.65,68.71,374.68,114.7Z" transform="translate(-114.36 -64.72)"/><path class="cls-7" d="M315,108.74c16.13,27.47-5.11,69.9-47.46,94.78s-89.74,22.78-105.88-4.69,5.09-69.9,47.44-94.78S298.81,81.26,315,108.74Z" transform="translate(-114.36 -64.72)"/><path class="cls-8" d="M135.18,220.38a8.49,8.49,0,0,1,0,2.8A4.54,4.54,0,0,1,135.18,220.38Z" transform="translate(-114.36 -64.72)"/><path class="cls-8" d="M135.24,188.28c0,.94,0,1.89,0,2.83A3.84,3.84,0,0,1,135.24,188.28Z" transform="translate(-114.36 -64.72)"/><path class="cls-9" d="M135.41,126.64a1.12,1.12,0,0,1,.13.24s-.08.06-.12.1A.45.45,0,0,1,135.41,126.64Z" transform="translate(-114.36 -64.72)"/><path class="cls-10" d="M303.05,389.08c2.38,2,5.18,3.2,7.86,4.65q6,3.24,12.06,6.42c1.07.57,1.48,1.24.74,2.44a3,3,0,0,0-.18.41h12.8l5.53-10.43c.17-.32.39-.61.58-.92.26-.49.52-1,.77-1.48-.55-1.17.77-1.4,1.13-2.13,1.51-3.1,3.23-6.1,4.85-9.15l17.19-32.45a4,4,0,0,1,1.18-1.59,3.32,3.32,0,0,1,.76-2c1-1.4.6-2.16-.87-2.91a32.33,32.33,0,0,1-5.79-3.19c-.33-.12-.67-.26-1-.37-1.22-.41-1.51-1-.82-2.25,3.71-6.78,7.33-13.61,10.94-20.45a7.85,7.85,0,0,0,1.2-2.61c-6.05.24-12.09-.24-18.14-.44-7.52-.25-15-.9-22.56-1.42a19.36,19.36,0,0,0-3-.33,1.31,1.31,0,0,1-.28.09c-.87,2.71-2.68,5-3.72,7.59a56.65,56.65,0,0,0,7.83,4.65c1.19.59,2.76,1,2,3a5.07,5.07,0,0,1,.32,5.9c-1.78,3.4-3.62,6.77-5.43,10.15,0,1.08,1,1.36,1.7,1.7,4,1.94,7.82,4.21,11.74,6.29,1.88,1,3.77,2.06,5.7,3s2.05,1.65,1,3.71c-.16.32-.28.66-.42,1,.31,4.46-2.24,7.83-4.53,11.17-1.54,2.26-4.24,2.52-6.67,1.24-5.56-2.92-11.12-5.84-16.61-8.86-1.34-.74-1.94-.55-2.59.78-1.27,2.6-2.72,5.12-4,7.71-1.11,2.18-2.66,3.57-5.29,3.26l-.72,1.49a4.64,4.64,0,0,1,.47,5.56C306.81,381.9,304.92,385.48,303.05,389.08Z" transform="translate(-114.36 -64.72)"/><path class="cls-11" d="M269.84,302c1-1.53,2.7-1.86,4.12-2.66,5.32-3,10.86-5.57,15.07-10.17,1.64-1.79,1.52-3.27-.53-4.45-6.65-3.84-12.68-8.56-18.78-13.18-2.84-2.15-5.43-4.63-8.16-6.92a103.58,103.58,0,0,1-12.84-13.32,88.73,88.73,0,0,1-7.81-10.62,66.26,66.26,0,0,1-7.58-17,38.49,38.49,0,0,1-1.7-13.06c.6-7.87,1.11-15.71,3.39-23.4a110.27,110.27,0,0,1,6-15.82,55.59,55.59,0,0,1,4.79-8.3,92.79,92.79,0,0,1,7.25-9.39,66.07,66.07,0,0,1,10.17-9.24,71.05,71.05,0,0,1,11.52-6.89,41.81,41.81,0,0,1,10-3.44c2.66-.49,5.22-1.38,8-1.57a69.24,69.24,0,0,1,13.35,0,54.15,54.15,0,0,1,9.72,1.94A63.64,63.64,0,0,1,337,145.74a78.87,78.87,0,0,1,13.69,14.18,66.39,66.39,0,0,1,4.93,7.75,93.75,93.75,0,0,1,7.44,17.45,90.21,90.21,0,0,1,3.74,30.95,36.58,36.58,0,0,1-2,9.49,72.5,72.5,0,0,1-5.2,11.88,80.32,80.32,0,0,1-9,13.13,119.59,119.59,0,0,1-13.46,14c-3.92,3.45-8,6.74-12.11,9.95-3.59,2.79-7.31,5.37-11.06,7.88a150.59,150.59,0,0,1-13.52,8.3c-1.38.73-2.64,1.68-4,2.52a6.74,6.74,0,0,0-1.39.35A81.34,81.34,0,0,1,284.8,298C279.92,299.71,275,301.47,269.84,302Zm88.65-92.23a43.44,43.44,0,0,0-.45-8.28,80.46,80.46,0,0,0-9.45-28.44c-5.46-9.65-12.67-17.63-22.19-23.28-16.09-9.55-32.84-10.36-49.72-2.39-12.17,5.75-21.05,15.21-27.36,27a75.93,75.93,0,0,0-9,40.23,40.84,40.84,0,0,0,3.51,14.21c4.49,10.35,11.62,18.78,19.65,26.53,9.56,9.23,20.34,16.78,31.61,23.74,3.09,1.91,5.21,2,8.41,0A225.43,225.43,0,0,0,325,264.3c9.57-7.65,18.31-16,25-26.42C355.37,229.43,359,220.47,358.49,209.81Z" transform="translate(-114.36 -64.72)"/><path class="cls-12" d="M292.13,403v0a161.24,161.24,0,0,1,8-14.6c.19-1.95,1.56-3.35,2.38-5,1.79-3.6,3.77-7.11,5.67-10.65l.72-1.49L318,354.47q3.09-5.93,6.2-11.83c.56-1.06,1.2-2.08,1.8-3.13,1.81-4.27,4.31-8.19,6.38-12.33.51-1,1.1-2,1.66-3,.76-1.95-.81-2.37-2-3a56.65,56.65,0,0,1-7.83-4.65c-3-.74-5.45-2.56-8.14-3.91-2.2-1.1-2.35-1.21-3.49.93q-6.25,11.72-12.47,23.45-6.48,12.21-13,24.43L278.86,377c-4.61,8.65-9.25,17.28-13.81,26Zm23.27-62.74a3.27,3.27,0,0,1,3.35,3.45,3.05,3.05,0,0,1-3.27,3.09,3.09,3.09,0,0,1-3.28-3.27A3.34,3.34,0,0,1,315.4,340.26Zm-25.52,48.49c1.76,0,3,1.44,3,3.49s-1.07,3.07-3.31,3.06a3.06,3.06,0,0,1-3.23-3.25A3.39,3.39,0,0,1,289.88,388.75Z" transform="translate(-114.36 -64.72)"/><path class="cls-9" d="M270.17,301.68c5.23-.56,10.13-2.3,15-4a84.62,84.62,0,0,0,10.37-4.32A5.67,5.67,0,0,1,297,293c2.2.4,4.26-.48,6.33-.9,4.48-.91,8.87-2.22,13.32-3.33a161.52,161.52,0,0,0,17.62-5.43c3.53-1.31,7.19-2.33,10.67-3.75,2.47-1,5-1.77,7.46-2.82a1.22,1.22,0,0,1,1.47.08A141,141,0,0,1,332,289.35c-7.6,3.51-15.36,6.59-23.14,10,1.93.29,3.86.6,5.8.86,4.08.55,8.16,1,12.23,1.62a20.82,20.82,0,0,0,2.72.18,2.6,2.6,0,0,1,2.16.73l-2.94,5.75-.28.08c-4.75-.61-9.53-.91-14.31-1.23-5.26-.35-10.46-1.64-15.75-1.33-4.77.27-9.52.88-14.29,1.33-2.77.26-5.55.56-8.32.78-6.41.49-12.82,1-19.23,1.42-4.54.3-9.09.5-13.64.74-8.71.47-17.42.48-26.13.31a59.94,59.94,0,0,1-14.41-1.74,6.23,6.23,0,0,1-3.6-2.27,1.58,1.58,0,0,1-.16-2c.52-.72,1.1-.08,1.61.14,3.19,1.38,6.64,1.38,10,1.55,4.63.22,9.29.23,13.91,0,5.87-.28,11.75-.59,17.59-1.31,3.37-.42,6.78-.48,10.15-.82q6.69-.67,13.35-1.58a21.44,21.44,0,0,1,3.09-.18A2,2,0,0,0,270.17,301.68Z" transform="translate(-114.36 -64.72)"/><path class="cls-13" d="M328.22,308.9l2.93-5.82c4.77,0,9.46.88,14.18,1.37,2.94.31,5.88.52,8.81.81,5.77.56,11.52,1.12,17.32,1.13a25.62,25.62,0,0,0,3.05.32c-.81,1.48-1.27,3.17-2.54,4.38-6.05.24-12.09-.24-18.14-.44-7.52-.25-15-.9-22.56-1.42A19.36,19.36,0,0,0,328.22,308.9Z" transform="translate(-114.36 -64.72)"/><path class="cls-9" d="M372,311.09c1.27-1.21,1.73-2.9,2.54-4.38,4.67,0,9.34.11,14,0a22.15,22.15,0,0,0,8.32-1.45c.79-.34,1.65-.76,2.21.3a1.85,1.85,0,0,1-.84,2.63,16,16,0,0,1-5.67,1.81,75.57,75.57,0,0,1-15.68,1.11c-1.37-.08-1.78.89-2.24,1.76-3.62,6.94-7.06,14-11,20.71-.64,1.08-.77,2.45-1.91,3.23-.33-.12-.67-.26-1-.37-1.22-.41-1.51-1-.82-2.25,3.71-6.78,7.33-13.61,10.94-20.45A7.85,7.85,0,0,0,372,311.09Z" transform="translate(-114.36 -64.72)"/><path class="cls-9" d="M386.27,399.77c1.89-24.83,8-48.53,14.14-72.22-.42,2.25-.82,4.5-1.25,6.75-1.6,8.39-3,16.82-4.33,25.27-.71,4.52-1.31,9.06-1.93,13.58A111.66,111.66,0,0,0,391.62,385a69.21,69.21,0,0,1-.79,10.09C390.43,397.28,388.4,398.51,386.27,399.77Z" transform="translate(-114.36 -64.72)"/><path class="cls-9" d="M198.48,330.77c.77,3.14,1.57,6.29,2.31,9.44,1.18,5,2.38,10.08,3.47,15.13,1.32,6.12,2.76,12.21,3.75,18.38,1.2,7.42,2.66,14.82,3.16,22.35.05.68.52,1.71-.52,2.06s-1.34-.64-1.92-1.13a6.72,6.72,0,0,1-2.31-5.43c-.16-6.09-1-12.13-1.65-18.18-.51-5.1-1.28-10.17-2.07-15.22-.82-5.23-1.55-10.48-2.57-15.69-.69-3.48-1.18-7-2-10.47a5.2,5.2,0,0,1,0-1.25Z" transform="translate(-114.36 -64.72)"/><path class="cls-9" d="M343.21,390.17c-.55-1.17.77-1.4,1.13-2.13,1.51-3.1,3.23-6.1,4.85-9.15l17.19-32.45a4,4,0,0,1,1.18-1.59c1.1,2.55.55,4.9-.77,7.2-3.34,5.79-6.21,11.84-9.5,17.65-2.93,5.17-5.4,10.58-8.43,15.69-.58,1-.76,2.17-1.58,3A7.22,7.22,0,0,1,343.21,390.17Z" transform="translate(-114.36 -64.72)"/><path class="cls-9" d="M339.49,403q1.9-3.64,3.76-7.3c.75-1.48.31-3.41-.81-4.05-.19.31-.41.6-.58.92L336.33,403Z" transform="translate(-114.36 -64.72)"/><path class="cls-9" d="M273.85,287.08c-2.36-1-4.48-2-6.6-2.91a68.8,68.8,0,0,1-10.07-5.61,72,72,0,0,1-10.46-8.23,87.19,87.19,0,0,1-10.63-11.84,11.48,11.48,0,0,1-1.35-2.14c-.42-1-.45-2.07.68-2.7a2,2,0,0,1,2.86.46,41.16,41.16,0,0,1,2.29,3.65c3.85,6.24,8.87,11.41,14.24,16.3a80.27,80.27,0,0,0,12.82,9.1c1.65,1,3.4,1.83,5.1,2.74C273.12,286.11,273.64,286.2,273.85,287.08Z" transform="translate(-114.36 -64.72)"/><path class="cls-8" d="M419.39,365.43a118.44,118.44,0,0,1-11.89,14l-.23-.22c3.8-4.8,7.68-9.54,11.89-14A1.58,1.58,0,0,0,419.39,365.43Z" transform="translate(-114.36 -64.72)"/><path class="cls-14" d="M406.23,380.89a6.33,6.33,0,0,1-2.49,2.54,7.88,7.88,0,0,1,2.45-3.1C406.21,380.52,406.22,380.71,406.23,380.89Z" transform="translate(-114.36 -64.72)"/><path class="cls-9" d="M198,329.82c-.41-.45-.2-.84-.28-1.54A1.65,1.65,0,0,1,198,329.82Z" transform="translate(-114.36 -64.72)"/><path class="cls-14" d="M403,384l.39-.28c.1.45-.27.18-.41.27Z" transform="translate(-114.36 -64.72)"/><path class="cls-14" d="M402.94,384l-.11.45c-.33-.25,0-.31.13-.44Z" transform="translate(-114.36 -64.72)"/><path class="cls-8" d="M419.72,364.67c.16.37,0,.6-.33.76a1.58,1.58,0,0,1-.23-.22l.56-.53Z" transform="translate(-114.36 -64.72)"/><path class="cls-8" d="M406.23,380.89c0-.18,0-.37,0-.56C406.92,380.47,406.28,380.7,406.23,380.89Z" transform="translate(-114.36 -64.72)"/><path class="cls-8" d="M407.15,379.8c-.13.06-.36.19-.38.16s0-.29.15-.38A1.58,1.58,0,0,0,407.15,379.8Z" transform="translate(-114.36 -64.72)"/><path class="cls-8" d="M406.92,379.58l.35-.38.23.22c-.12.13-.24.25-.35.38A1.58,1.58,0,0,1,406.92,379.58Z" transform="translate(-114.36 -64.72)"/><path class="cls-8" d="M420.13,364.36c-.05.22-.13.4-.41.31h0l.34-.4Z" transform="translate(-114.36 -64.72)"/><path class="cls-8" d="M420.06,364.28l.16-.26.16.16-.25.17Z" transform="translate(-114.36 -64.72)"/><path class="cls-15" d="M343.56,132.44c.17-.22.25-.11.31.09l-.18,0Z" transform="translate(-114.36 -64.72)"/><path class="cls-16" d="M323.53,403a3,3,0,0,1,.18-.41c.74-1.2.33-1.87-.74-2.44q-6-3.19-12.06-6.42c-2.68-1.45-5.48-2.69-7.86-4.65-1.13.38-1.85-.9-2.92-.71a161.24,161.24,0,0,0-8,14.6l.06,0Z" transform="translate(-114.36 -64.72)"/><path class="cls-16" d="M318,354.47q3.09-5.93,6.2-11.83c.56-1.06,1.2-2.08,1.8-3.13a4.41,4.41,0,0,0,2.93.73c0,1.08,1,1.36,1.7,1.7,4,1.94,7.82,4.21,11.74,6.29,1.88,1,3.77,2.06,5.7,3s2.05,1.65,1,3.71c-.16.32-.28.66-.42,1-1.1,2-2.22,3.94-3.31,5.92a16.94,16.94,0,0,0-1,2c-1.5,3.73-1.94,3.86-5.36,2C332,362,325,358.24,318,354.47Z" transform="translate(-114.36 -64.72)"/><path class="cls-13" d="M318,354.47c7,3.77,14,7.52,21,11.33,3.42,1.87,3.86,1.74,5.36-2a16.94,16.94,0,0,1,1-2c1.09-2,2.21-4,3.31-5.92.31,4.46-2.24,7.83-4.53,11.17-1.54,2.26-4.24,2.52-6.67,1.24-5.56-2.92-11.12-5.84-16.61-8.86-1.34-.74-1.94-.55-2.59.78-1.27,2.6-2.72,5.12-4,7.71-1.11,2.18-2.66,3.57-5.29,3.26Z" transform="translate(-114.36 -64.72)"/><path class="cls-13" d="M303.05,389.08c-1.13.38-1.85-.9-2.92-.71.19-1.95,1.56-3.35,2.38-5,1.79-3.6,3.77-7.11,5.67-10.65a4.64,4.64,0,0,1,.47,5.56C306.81,381.9,304.92,385.48,303.05,389.08Z" transform="translate(-114.36 -64.72)"/><path class="cls-13" d="M328.94,340.24a4.41,4.41,0,0,1-2.93-.73c1.81-4.27,4.31-8.19,6.38-12.33.51-1,1.1-2,1.66-3a5.07,5.07,0,0,1,.32,5.9C332.59,333.49,330.75,336.86,328.94,340.24Z" transform="translate(-114.36 -64.72)"/><path class="cls-17" d="M358.49,209.81c.47,10.66-3.12,19.62-8.54,28.07-6.67,10.39-15.41,18.77-25,26.42a225.43,225.43,0,0,1-21.48,14.87c-3.2,2-5.32,1.88-8.41,0-11.27-7-22.05-14.51-31.61-23.74-8-7.75-15.16-16.18-19.65-26.53a40.84,40.84,0,0,1-3.51-14.21,75.93,75.93,0,0,1,9-40.23c6.31-11.8,15.19-21.26,27.36-27,16.88-8,33.63-7.16,49.72,2.39,9.52,5.65,16.73,13.63,22.19,23.28A80.46,80.46,0,0,1,358,201.53,43.44,43.44,0,0,1,358.49,209.81Zm-19.05-8.65a13.18,13.18,0,0,0-13.09-12.75c-7.23,0-13.34,5.89-13.31,12.73,2.93,7,3.77,6.28,11,6.2S339.47,208.22,339.44,201.16ZM260.62,200c0,6.51,5.62,5.48,12.65,5.43,6.8-.06,12.32.89,12.32-5.43s-5.59-11.55-12.32-11.57C266.27,188.39,260.59,193.59,260.62,200Z" transform="translate(-114.36 -64.72)"/><path class="cls-18" d="M289.55,395.3a3.06,3.06,0,0,1-3.23-3.25,3.39,3.39,0,0,1,3.56-3.3c1.76,0,3,1.44,3,3.49S291.79,395.31,289.55,395.3Z" transform="translate(-114.36 -64.72)"/><path class="cls-18" d="M318.75,343.71a3.05,3.05,0,0,1-3.27,3.09,3.09,3.09,0,0,1-3.28-3.27,3.34,3.34,0,0,1,3.2-3.27A3.27,3.27,0,0,1,318.75,343.71Z" transform="translate(-114.36 -64.72)"/><path class="cls-18" d="M339.44,199.94c0,5.48-6.14,9.94-13.84,10s-14-4.45-14.05-10c0-5.31,6.43-12.71,14.06-12.74C333,187.17,339.41,194.6,339.44,199.94Z" transform="translate(-114.36 -64.72)"/><path class="cls-18" d="M259.3,200c0-5.51,6.28-12.83,14.07-12.81,7.5,0,13.7,8.67,13.71,14.1s-6.14,8.6-13.71,8.65C265.56,210,259.34,205.59,259.3,200Z" transform="translate(-114.36 -64.72)"/><path class="cls-19" d="M423.71,345.54c-1.08,2-2.19,4-3.36,5.91-.33.54-.67,1.07-1,1.6-.05.09-.18.13-.42.3l-1.7-7.09c-1.68-7-3.56-13.86-5.78-20.66a42.44,42.44,0,0,0-8.23-15.06,31,31,0,0,0-9.11-6.26,1.1,1.1,0,0,1-.7-1.37c1-7.13.17-14.18-.92-21.23-2.54-16.58-6.63-32.81-10.81-49-1.08-4.19-2.13-8.39-3.2-12.58l-4-14.57c-1.62-5.11-3-10.3-4.83-15.33a142.14,142.14,0,0,0-22.21-39.11c-.56-.72-1.09-1.46-1.64-2.19a57,57,0,0,1-5.27-6.22l.05,0-.16,0-.13-.1c-3.13-3-6.16-6.14-9.41-9-7.43-6.6-15.34-12.47-24.48-16.47A18.4,18.4,0,0,0,290.9,117a87.59,87.59,0,0,0-21.13,13.5,143.4,143.4,0,0,0-36.63,46.46c-5.2,10.36-8.59,21.37-11.59,32.55-3.24,12.1-6.55,24.18-9.6,36.33a11.38,11.38,0,0,1-.84,3.15q-1.77,8-3.55,16c-1.05,5.79-2.24,11.56-3.11,17.38-1,6.92-2,13.87-.69,20.88a.93.93,0,0,1-.57,1.22,34.61,34.61,0,0,0-8.13,5.62c-6.72,7.16-9.12,16.38-11.63,25.53-1.62,5.87-3.05,11.8-4.61,17.89-1-1.5-1.89-3-2.77-4.54.15,1.36.28,2.72.33,4.09.08,2.5-11.21,17.71-13.22,18.19,7.55,12,19.18,17.86,31.52,26.92,4.87,3.58,7.34,4.81,17.8,4.81h53.15l.32-.61c4.55-8.86,9.2-17.68,13.81-26.51q3.89-7.42,7.75-14.84,6.08-11.66,12.13-23.31,5.83-11.18,11.66-22.37c1.07-2,1.2-1.93,3.27-.88,2.51,1.28,4.82,3,7.6,3.72,1-2.5,2.67-4.65,3.49-7.23-4.43-.6-8.88-.88-13.33-1.2-4.89-.34-9.72-1.58-14.65-1.29-4.44.27-8.86.85-13.3,1.29-2.58.26-5.16.54-7.75.75-6,.48-11.92,1-17.89,1.38-4.23.29-8.46.48-12.69.72-8.1.45-16.22.46-24.32.3a53.81,53.81,0,0,1-13.41-1.69A5.71,5.71,0,0,1,205,309a1.59,1.59,0,0,1-.15-1.93c.49-.7,1-.07,1.5.14,3,1.33,6.17,1.33,9.3,1.49a126.94,126.94,0,0,0,12.94,0c5.47-.27,10.93-.57,16.37-1.27,3.13-.41,6.31-.46,9.45-.79,4.15-.44,8.29-.94,12.42-1.53a20,20,0,0,1,2.88-.18,1.86,1.86,0,0,0,1.66-.64c.89-1.46,2.51-1.78,3.84-2.54,5-2.82,10.16-5.32,14.09-9.7,1.54-1.71,1.43-3.12-.49-4.25-6.22-3.66-11.86-8.16-17.56-12.57-2.65-2-5.08-4.41-7.63-6.6a98.12,98.12,0,0,1-12-12.71,83.57,83.57,0,0,1-7.31-10.13,63.75,63.75,0,0,1-7.08-16.18,37.52,37.52,0,0,1-1.59-12.46c.56-7.51,1-15,3.17-22.32a106.62,106.62,0,0,1,5.6-15.1,53.79,53.79,0,0,1,4.47-7.91,90,90,0,0,1,6.78-9,63,63,0,0,1,9.51-8.82,66.35,66.35,0,0,1,10.77-6.56,38.23,38.23,0,0,1,9.39-3.29c2.49-.46,4.88-1.31,7.45-1.5a64.25,64.25,0,0,1,12.48,0,49.21,49.21,0,0,1,9.09,1.86,58.74,58.74,0,0,1,19.8,10.63,75.22,75.22,0,0,1,12.8,13.52,63.15,63.15,0,0,1,4.61,7.4,89.9,89.9,0,0,1,7,16.65,87.55,87.55,0,0,1,3.5,29.52,35.62,35.62,0,0,1-1.85,9,69.16,69.16,0,0,1-4.86,11.33,76,76,0,0,1-8.41,12.53,113.71,113.71,0,0,1-12.59,13.36c-3.67,3.29-7.46,6.43-11.32,9.5-3.35,2.66-6.83,5.11-10.34,7.51A141.45,141.45,0,0,1,300,293.53c-1.29.7-2.47,1.6-3.71,2.41,2.06.39,4-.46,5.89-.87,4.17-.89,8.27-2.15,12.4-3.22a148.26,148.26,0,0,0,16.4-5.26c3.29-1.27,6.69-2.25,9.93-3.63,2.3-1,4.67-1.71,6.94-2.73a1.11,1.11,0,0,1,1.37.08,130.26,130.26,0,0,1-20.32,12.1c-7.07,3.39-14.3,6.37-21.54,9.63,1.8.28,3.59.59,5.4.84,3.79.52,7.6,1,11.38,1.56a19.69,19.69,0,0,0,2.53.18,2.33,2.33,0,0,1,2,.7c4.46,0,8.84.85,13.26,1.32,2.74.29,5.49.5,8.24.77,5.39.53,10.77,1.07,16.19,1.08a22.18,22.18,0,0,0,2.85.3c4.36,0,8.73.11,13.09,0a20.59,20.59,0,0,0,7.78-1.39c.73-.32,1.54-.72,2.06.29a1.76,1.76,0,0,1-.79,2.5,14.45,14.45,0,0,1-5.29,1.73A68.58,68.58,0,0,1,371.38,313c-1.28-.07-1.67.85-2.09,1.68-3.39,6.62-6.61,13.32-10.33,19.75-.6,1-.72,2.34-1.78,3.09a31,31,0,0,0,5.41,3c1.37.71,1.72,1.44.82,2.77a3.13,3.13,0,0,0-.72,1.89c1,2.43.51,4.68-.72,6.87-3.12,5.53-5.8,11.3-8.88,16.83-2.74,4.94-5,10.1-7.88,15-.55.94-.71,2.06-1.48,2.89a6.73,6.73,0,0,1-3.8,1.67l-.72,1.41c1.05.61,1.45,2.45.75,3.86q-2.32,4.68-4.73,9.32h50.11c6.17,0,24.84-10.47,32.65-19.61,6.48-7.58,11.35-8,16.25-16.41C433,364.28,425,348.19,423.71,345.54Zm-219.56-14.7c-.38-.44-.19-.8-.26-1.47A1.58,1.58,0,0,1,204.15,330.84Zm.47.9c.72,3,1.46,6,2.16,9,1.1,4.8,2.22,9.61,3.24,14.43,1.23,5.83,2.58,11.65,3.51,17.53,1.12,7.09,2.48,14.14,2.95,21.32.05.65.49,1.64-.49,2s-1.25-.61-1.8-1.08a6.51,6.51,0,0,1-2.15-5.18c-.15-5.81-1-11.57-1.54-17.34-.49-4.87-1.2-9.71-1.94-14.52-.76-5-1.45-10-2.4-15-.64-3.32-1.1-6.68-1.88-10a5.25,5.25,0,0,1,0-1.19Zm34.53-73.57a1.83,1.83,0,0,1,2.68.45A36.84,36.84,0,0,1,244,262.1c3.6,5.95,8.3,10.88,13.32,15.55a75.63,75.63,0,0,0,12,8.68c1.55.95,3.19,1.74,4.78,2.61.36.2.84.29,1,1.12-2.2-1-4.19-1.87-6.17-2.77a64.25,64.25,0,0,1-9.41-5.35,68.1,68.1,0,0,1-9.78-7.85,81.57,81.57,0,0,1-9.94-11.3,10,10,0,0,1-1.26-2A1.86,1.86,0,0,1,239.15,258.17Zm153.09,76.94c-1.5,8-2.81,16.05-4.05,24.1-.66,4.31-1.23,8.64-1.81,13a109.45,109.45,0,0,0-1.19,11.31,67.11,67.11,0,0,1-.75,9.63c-.36,2.07-2.27,3.25-4.26,4.46,1.77-23.69,7.45-46.3,13.22-68.9C393,330.82,392.64,333,392.24,335.11Zm6.61,44.45a6.14,6.14,0,0,1-2.33,2.42,7.4,7.4,0,0,1,2.29-3C399.49,379.15,398.89,379.37,398.85,379.56Zm12.3-14.75A112.82,112.82,0,0,1,400,378.15l-.32.36c-.13.06-.34.18-.36.15s0-.27.15-.35.21-.25.31-.37c3.56-4.58,7.19-9.1,11.12-13.35l.53-.5C411.6,364.44,411.44,364.65,411.15,364.81Z" transform="translate(-114.36 -64.72)"/><path class="cls-20" d="M393.93,383.39c-.29-.22,0-.28.1-.39Z" transform="translate(-114.36 -64.72)"/><path class="cls-20" d="M394.08,383l.34-.24C394.5,383.09,394.23,382.93,394.08,383Z" transform="translate(-114.36 -64.72)"/><path class="cls-20" d="M410.1,364.61c0,.21-.11.37-.37.3l.31-.37.14-.24.16.15Z" transform="translate(-114.36 -64.72)"/><text class="cls-21" transform="translate(317.76 355.26)">tm</text></svg>